<?xml version="1.0" encoding="utf-8"?>
<!-- Generator: Adobe Illustrator 24.2.1, SVG Export Plug-In . SVG Version: 6.00 Build 0)  -->
<svg version="1.1" id="Layer_1" xmlns="http://www.w3.org/2000/svg" xmlns:xlink="http://www.w3.org/1999/xlink" x="0px" y="0px"
	 viewBox="0 0 800 740.97" style="enable-background:new 0 0 800 740.97;" xml:space="preserve">
<style type="text/css">
	.st0{fill:#000000;}
</style>
<g>
	<rect y="0" class="st0" width="319.21" height="362.64"/>
	<polygon class="st0" points="662.56,0 535.26,298.4 407.96,0 334.91,0 334.91,362.64 383.61,362.64 383.61,72.01 383.61,58.02
		515.57,362.64 554.94,362.64 686.91,58.02 686.91,72.01 686.91,362.64 735.6,362.64 735.6,0 	"/>
	<polygon class="st0" points="0,378.34 0,740.97 256.89,740.97 256.89,700.05 48.7,700.05 48.7,574.16 256.89,574.16 256.89,533.23
		48.7,533.23 48.7,419.26 256.89,419.26 256.89,378.34 	"/>
	<rect x="751.3" y="0" class="st0" width="48.7" height="362.64"/>
	<polygon class="st0" points="543.11,378.34 543.11,740.97 591.81,740.97 591.81,578.31 800,578.31 800,537.38 591.81,537.38
		591.81,419.26 800,419.26 800,378.34 	"/>
	<polygon class="st0" points="270.51,378.34 270.51,740.97 319.21,740.97 319.21,578.31 527.41,578.31 527.41,537.38 319.21,537.38
		319.21,419.26 527.41,419.26 527.41,378.34 	"/>
</g>
</svg>
